<svg width="190" height="40" viewBox="0 0 190 40" fill="none" xmlns="http://www.w3.org/2000/svg">
<path d="M15.7929 8.59521V8.59626C15.776 8.62534 12.2955 14.6292 7.95067 21.9595C3.59532 29.3077 0 35.1906 0 35.1906L12.3315 35.1365L12.3323 35.1364L12.3297 35.1459C18.3172 35.03 23.7182 31.0934 25.3119 25.1453C25.8102 23.286 25.8853 21.4143 25.5964 19.6255C24.8043 14.3582 20.9149 10.0745 15.7929 8.59521Z" fill="black"/>
<path d="M22.6078 4.80933V4.81037C22.591 4.83945 19.1104 10.8433 14.7656 18.1736C10.4103 25.5218 6.81494 31.4047 6.81494 31.4047L19.1464 31.3506L19.1472 31.3505L19.1446 31.36C25.1321 31.2441 30.5331 27.3075 32.1269 21.3594C32.6251 19.5001 32.7003 17.6284 32.4113 15.8396C31.6192 10.5724 27.7299 6.28859 22.6078 4.80933Z" fill="#10F2C5"/>
<path d="M58.2706 17.1521H54.3718C54.3005 16.6476 54.1552 16.1996 53.9356 15.8079C53.716 15.4103 53.4341 15.0721 53.0899 14.7931C52.7457 14.5142 52.3481 14.3006 51.8971 14.1522C51.4521 14.0039 50.9684 13.9297 50.4462 13.9297C49.5026 13.9297 48.6807 14.1641 47.9805 14.6329C47.2802 15.0958 46.7372 15.7723 46.3515 16.6625C45.9657 17.5467 45.7729 18.6208 45.7729 19.8848C45.7729 21.1844 45.9657 22.2764 46.3515 23.1606C46.7431 24.0448 47.2891 24.7124 47.9894 25.1634C48.6896 25.6144 49.4996 25.84 50.4195 25.84C50.9358 25.84 51.4135 25.7717 51.8526 25.6352C52.2977 25.4987 52.6923 25.2999 53.0365 25.0388C53.3807 24.7718 53.6656 24.4483 53.8911 24.0685C54.1225 23.6887 54.2827 23.2555 54.3718 22.7689L58.2706 22.7867C58.1697 23.6235 57.9175 24.4305 57.514 25.2079C57.1164 25.9794 56.5793 26.6708 55.9028 27.282C55.2322 27.8873 54.4311 28.368 53.4994 28.7241C52.5736 29.0742 51.5262 29.2492 50.3572 29.2492C48.7311 29.2492 47.2772 28.8813 45.9954 28.1455C44.7195 27.4096 43.7107 26.3444 42.9689 24.9498C42.233 23.5552 41.8651 21.8669 41.8651 19.8848C41.8651 17.8968 42.239 16.2055 42.9867 14.8109C43.7344 13.4164 44.7492 12.3541 46.031 11.6242C47.3128 10.8883 48.7549 10.5204 50.3572 10.5204C51.4135 10.5204 52.3926 10.6688 53.2947 10.9655C54.2026 11.2622 55.0067 11.6954 55.707 12.2651C56.4072 12.8289 56.9769 13.5202 57.4161 14.3392C57.8612 15.1581 58.146 16.0957 58.2706 17.1521ZM64.7554 10.7696V29H60.9633V10.7696H64.7554ZM74.0241 29.267C72.6177 29.267 71.4071 28.9822 70.3923 28.4125C69.3835 27.8369 68.6061 27.0239 68.0601 25.9735C67.5141 24.9172 67.2412 23.668 67.2412 22.2259C67.2412 20.8195 67.5141 19.5851 68.0601 18.5229C68.6061 17.4606 69.3746 16.6328 70.3656 16.0394C71.3626 15.4459 72.5316 15.1492 73.8728 15.1492C74.7748 15.1492 75.6145 15.2946 76.3919 15.5854C77.1753 15.8702 77.8577 16.3005 78.4393 16.8761C79.0268 17.4517 79.4837 18.1757 79.8101 19.0481C80.1365 19.9145 80.2997 20.9293 80.2997 22.0924V23.1339H68.7544V20.7839H76.7302C76.7302 20.2379 76.6115 19.7543 76.3741 19.3329C76.1368 18.9116 75.8074 18.5822 75.3861 18.3449C74.9707 18.1015 74.487 17.9799 73.9351 17.9799C73.3595 17.9799 72.8491 18.1134 72.4041 18.3805C71.9649 18.6416 71.6207 18.9947 71.3715 19.4397C71.1222 19.8789 70.9946 20.3685 70.9887 20.9085V23.1428C70.9887 23.8193 71.1133 24.4038 71.3626 24.8964C71.6177 25.3889 71.9768 25.7687 72.4397 26.0358C72.9025 26.3028 73.4515 26.4364 74.0864 26.4364C74.5078 26.4364 74.8935 26.377 75.2436 26.2583C75.5938 26.1396 75.8935 25.9616 76.1427 25.7242C76.3919 25.4869 76.5818 25.1961 76.7124 24.8519L80.2196 25.0833C80.0416 25.926 79.6766 26.6619 79.1247 27.2909C78.5788 27.914 77.8726 28.4006 77.0061 28.7508C76.1457 29.0949 75.1517 29.267 74.0241 29.267ZM86.6732 29.2581C85.8009 29.2581 85.0235 29.1068 84.341 28.8042C83.6586 28.4956 83.1185 28.0416 82.7209 27.4422C82.3293 26.8369 82.1334 26.0833 82.1334 25.1812C82.1334 24.4216 82.2729 23.7837 82.5518 23.2674C82.8307 22.7511 83.2105 22.3357 83.6912 22.0212C84.1719 21.7067 84.7178 21.4693 85.3291 21.3091C85.9463 21.1488 86.5931 21.0361 87.2696 20.9708C88.0648 20.8877 88.7057 20.8106 89.1924 20.7394C89.679 20.6622 90.0321 20.5495 90.2516 20.4011C90.4712 20.2528 90.581 20.0332 90.581 19.7424V19.689C90.581 19.1252 90.403 18.689 90.0469 18.3805C89.6968 18.0719 89.1983 17.9176 88.5514 17.9176C87.869 17.9176 87.326 18.0689 86.9225 18.3716C86.5189 18.6683 86.2519 19.0421 86.1213 19.4932L82.6141 19.2083C82.7921 18.3775 83.1423 17.6594 83.6645 17.0541C84.1867 16.4429 84.8603 15.9741 85.6851 15.6477C86.516 15.3154 87.4773 15.1492 88.5692 15.1492C89.3288 15.1492 90.0558 15.2382 90.7501 15.4162C91.4504 15.5943 92.0705 15.8702 92.6105 16.2441C93.1565 16.618 93.5867 17.0986 93.9013 17.6861C94.2158 18.2677 94.373 18.965 94.373 19.778V29H90.7768V27.104H90.67C90.4504 27.5312 90.1567 27.9081 89.7888 28.2345C89.4208 28.5549 88.9787 28.8071 88.4624 28.9911C87.9461 29.1691 87.3497 29.2581 86.6732 29.2581ZM87.7592 26.6411C88.317 26.6411 88.8096 26.5313 89.2369 26.3117C89.6641 26.0862 89.9994 25.7836 90.2427 25.4038C90.486 25.024 90.6077 24.5937 90.6077 24.1131V22.6621C90.489 22.7393 90.3258 22.8105 90.1181 22.8757C89.9163 22.9351 89.6879 22.9915 89.4327 23.0449C89.1775 23.0923 88.9223 23.1369 88.6672 23.1784C88.412 23.214 88.1805 23.2466 87.9728 23.2763C87.5278 23.3416 87.1391 23.4454 86.8067 23.5879C86.4744 23.7303 86.2163 23.9232 86.0323 24.1665C85.8483 24.4038 85.7564 24.7006 85.7564 25.0566C85.7564 25.5729 85.9433 25.9675 86.3172 26.2405C86.697 26.5076 87.1776 26.6411 87.7592 26.6411ZM101.107 21.0954V29H97.315V15.3272H100.929V17.7396H101.089C101.392 16.9443 101.899 16.3153 102.611 15.8524C103.324 15.3836 104.187 15.1492 105.202 15.1492C106.151 15.1492 106.979 15.3569 107.685 15.7723C108.391 16.1877 108.94 16.7812 109.332 17.5526C109.724 18.3182 109.92 19.232 109.92 20.2943V29H106.128V20.9708C106.133 20.1341 105.92 19.4813 105.487 19.0125C105.053 18.5377 104.457 18.3003 103.697 18.3003C103.187 18.3003 102.736 18.4101 102.344 18.6297C101.959 18.8493 101.656 19.1697 101.436 19.5911C101.223 20.0065 101.113 20.5079 101.107 21.0954ZM118.781 29V10.7696H122.635V18.2914H130.46V10.7696H134.305V29H130.46V21.4693H122.635V29H118.781ZM143.59 29.267C142.207 29.267 141.011 28.9733 140.002 28.3858C138.999 27.7924 138.225 26.9675 137.679 25.9112C137.133 24.8489 136.86 23.6175 136.86 22.217C136.86 20.8046 137.133 19.5703 137.679 18.514C138.225 17.4517 138.999 16.6269 140.002 16.0394C141.011 15.4459 142.207 15.1492 143.59 15.1492C144.972 15.1492 146.165 15.4459 147.168 16.0394C148.177 16.6269 148.954 17.4517 149.5 18.514C150.046 19.5703 150.319 20.8046 150.319 22.217C150.319 23.6175 150.046 24.8489 149.5 25.9112C148.954 26.9675 148.177 27.7924 147.168 28.3858C146.165 28.9733 144.972 29.267 143.59 29.267ZM143.607 26.3295C144.237 26.3295 144.762 26.1515 145.183 25.7954C145.604 25.4334 145.922 24.9409 146.136 24.3178C146.355 23.6947 146.465 22.9855 146.465 22.1903C146.465 21.3951 146.355 20.686 146.136 20.0629C145.922 19.4397 145.604 18.9472 145.183 18.5852C144.762 18.2232 144.237 18.0422 143.607 18.0422C142.972 18.0422 142.438 18.2232 142.005 18.5852C141.578 18.9472 141.254 19.4397 141.035 20.0629C140.821 20.686 140.714 21.3951 140.714 22.1903C140.714 22.9855 140.821 23.6947 141.035 24.3178C141.254 24.9409 141.578 25.4334 142.005 25.7954C142.438 26.1515 142.972 26.3295 143.607 26.3295ZM152.785 29V15.3272H156.399V17.7396H156.559C156.844 16.9384 157.319 16.3064 157.983 15.8435C158.648 15.3806 159.443 15.1492 160.369 15.1492C161.307 15.1492 162.105 15.3836 162.764 15.8524C163.422 16.3153 163.861 16.9443 164.081 17.7396H164.223C164.502 16.9562 165.007 16.3301 165.737 15.8613C166.473 15.3866 167.342 15.1492 168.345 15.1492C169.621 15.1492 170.656 15.5557 171.451 16.3687C172.253 17.1758 172.653 18.3211 172.653 19.8047V29H168.87V20.5524C168.87 19.7928 168.668 19.2231 168.265 18.8433C167.861 18.4635 167.357 18.2736 166.751 18.2736C166.063 18.2736 165.526 18.4932 165.14 18.9324C164.755 19.3656 164.562 19.9382 164.562 20.6504V29H160.885V20.4723C160.885 19.8017 160.692 19.2676 160.307 18.87C159.927 18.4724 159.426 18.2736 158.802 18.2736C158.381 18.2736 158.001 18.3805 157.663 18.5941C157.331 18.8018 157.067 19.0956 156.871 19.4754C156.675 19.8492 156.577 20.2884 156.577 20.7928V29H152.785ZM181.88 29.267C180.473 29.267 179.263 28.9822 178.248 28.4125C177.239 27.8369 176.462 27.0239 175.916 25.9735C175.37 24.9172 175.097 23.668 175.097 22.2259C175.097 20.8195 175.37 19.5851 175.916 18.5229C176.462 17.4606 177.23 16.6328 178.221 16.0394C179.218 15.4459 180.387 15.1492 181.728 15.1492C182.63 15.1492 183.47 15.2946 184.247 15.5854C185.031 15.8702 185.713 16.3005 186.295 16.8761C186.882 17.4517 187.339 18.1757 187.666 19.0481C187.992 19.9145 188.155 20.9293 188.155 22.0924V23.1339H176.61V20.7839H184.586C184.586 20.2379 184.467 19.7543 184.23 19.3329C183.992 18.9116 183.663 18.5822 183.242 18.3449C182.826 18.1015 182.343 17.9799 181.791 17.9799C181.215 17.9799 180.705 18.1134 180.26 18.3805C179.82 18.6416 179.476 18.9947 179.227 19.4397C178.978 19.8789 178.85 20.3685 178.844 20.9085V23.1428C178.844 23.8193 178.969 24.4038 179.218 24.8964C179.473 25.3889 179.832 25.7687 180.295 26.0358C180.758 26.3028 181.307 26.4364 181.942 26.4364C182.363 26.4364 182.749 26.377 183.099 26.2583C183.449 26.1396 183.749 25.9616 183.998 25.7242C184.247 25.4869 184.437 25.1961 184.568 24.8519L188.075 25.0833C187.897 25.926 187.532 26.6619 186.98 27.2909C186.434 27.914 185.728 28.4006 184.862 28.7508C184.001 29.0949 183.007 29.267 181.88 29.267Z" fill="black"/>
</svg>
